<?xml version="1.0" standalone="no"?>
<!DOCTYPE svg PUBLIC "-//W3C//DTD SVG 20010904//EN"
 "http://www.w3.org/TR/2001/REC-SVG-20010904/DTD/svg10.dtd">
<svg version="1.0" xmlns="http://www.w3.org/2000/svg"
 width="512.000000pt" height="512.000000pt" viewBox="0 0 512.000000 512.000000"
 preserveAspectRatio="xMidYMid meet">
<metadata>
Created by potrace 1.14, written by Peter Selinger 2001-2017
</metadata>
<g transform="translate(0.000000,512.000000) scale(0.100000,-0.100000)"
fill="#000000" stroke="none">
<path d="M2290 5100 c-537 -81 -1009 -392 -1297 -855 -27 -44 -58 -99 -69
-121 -16 -36 -25 -43 -57 -48 -70 -12 -102 -55 -152 -201 -45 -135 -80 -292
-90 -407 -8 -82 12 -132 60 -155 32 -15 32 -17 34 -87 11 -375 133 -731 355
-1037 l44 -61 -68 -69 c-37 -38 -72 -69 -76 -69 -5 0 -115 106 -244 236 -129
130 -253 245 -275 257 -51 27 -145 29 -196 5 -111 -53 -159 -186 -108 -297 14
-32 90 -114 260 -284 l240 -240 -28 -30 c-16 -16 -50 -51 -76 -78 -39 -39 -47
-53 -42 -71 7 -23 205 -231 237 -249 25 -14 49 2 125 77 36 35 66 64 68 64 2
0 69 -66 149 -146 86 -86 143 -151 139 -158 -4 -6 -21 -29 -39 -51 -49 -61
-132 -200 -175 -292 -99 -214 -148 -415 -163 -660 l-4 -73 1719 0 1718 0 -5
88 c-18 351 -147 697 -363 973 l-20 25 150 150 c127 126 152 147 162 134 30
-36 146 -140 158 -140 22 0 259 242 259 265 0 12 -30 50 -75 95 l-75 74 243
246 c140 141 251 260 260 282 10 20 17 61 17 93 0 171 -186 279 -332 192 -24
-14 -146 -129 -273 -256 -126 -127 -233 -231 -237 -231 -3 0 -38 32 -76 71
l-70 71 43 57 c127 167 241 404 294 610 37 140 50 232 66 441 2 32 10 59 18
65 9 5 24 16 36 24 33 24 44 63 37 138 -4 38 -8 80 -11 93 -3 14 -10 51 -15
83 -6 32 -25 104 -41 160 -63 212 -96 261 -179 270 -26 3 -35 11 -50 43 -9 21
-40 76 -68 121 -184 298 -452 542 -763 695 -138 68 -335 133 -464 154 -16 3
-55 10 -85 16 -98 18 -402 17 -530 -2z m-815 -3311 c78 -58 211 -137 303 -179
39 -19 72 -37 72 -40 0 -4 -28 -20 -62 -36 -34 -16 -98 -53 -142 -81 -44 -29
-82 -53 -84 -53 -9 0 -302 295 -302 305 0 16 135 143 145 135 6 -3 37 -27 70
-51z m2241 -238 l-154 -154 -79 51 c-44 28 -110 65 -146 83 -37 18 -67 36 -67
39 0 4 37 24 83 45 83 40 239 130 273 159 11 8 37 29 59 45 l40 30 73 -72 72
-72 -154 -154z"/>
</g>
</svg>
